<?xml version="1.0" encoding="utf-8"?>
<!-- Generator: Adobe Illustrator 24.1.0, SVG Export Plug-In . SVG Version: 6.00 Build 0)  -->
<svg version="1.1" id="Layer_1" xmlns="http://www.w3.org/2000/svg" xmlns:xlink="http://www.w3.org/1999/xlink" x="0px" y="0px"
	 viewBox="0 0 469.2 500" style="enable-background:new 0 0 469.2 500;" xml:space="preserve">
<style type="text/css">
	.st0{fill:#FAF0DC;}
	.st1{fill:#FAE632;}
	.st2{fill:#C8C8C3;}
	.st3{fill:#A0A5AA;}
	.st4{fill:#FACC0A;}
	.st5{fill:#F0D7B9;}
	.st6{fill:#F0BE8C;}
	.st7{fill:#FFFFFF;}
	.st8{opacity:0.81;fill:#FFFFFF;}
	.st9{fill:#68CCEA;}
	.st10{fill:#5ABCE2;}
	.st11{fill:#E4C05C;}
	.st12{fill:#B19046;}
	.st13{fill:#805333;}
	.st14{fill:#DC8744;}
	.st15{fill:#F6C358;}
	.st16{fill:#FCD462;}
	.st17{fill:#5AB267;}
	.st18{fill:#288C64;}
	.st19{fill:#17734E;}
	.st20{fill:#8CD96B;}
	.st21{fill:#B06328;}
	.st22{fill:#B0C4D8;}
	.st23{fill:#99B4CD;}
	.st24{fill:#C4D7E5;}
	.st25{opacity:0.21;fill:#70B7E5;}
	.st26{opacity:0.3;fill:#92C5EB;}
	.st27{opacity:0.32;fill:#4C9CD6;}
	.st28{fill:#B0C9DB;}
	.st29{fill:#E2E7F0;}
	.st30{fill:#A35425;}
	.st31{fill:#C97629;}
</style>
<g>
	<g>
		<path class="st0" d="M215.8,18c-1.4,0-2.8,0.1-4.1,0.3C206.1,8.5,195.7,2,183.8,2c-8.8,0-16.9,3.6-22.6,9.4
			c-3-0.9-6.1-1.4-9.4-1.4c-8.8,0-16.9,3.6-22.6,9.4c-3-0.9-6.1-1.4-9.4-1.4c-17.7,0-32,14.3-32,32s14.3,32,32,32h96
			c17.7,0,32-14.3,32-32S233.4,18,215.8,18z"/>
	</g>
	<g>
		<path class="st1" d="M259.5,85.3l-8.1-24.3c-2.2-6.5-8.3-10.9-15.2-10.9H99.3c-6.9,0-13,4.4-15.2,10.9L76,85.3
			C62.6,125.5,55.8,167.6,55.8,210v32.4c0,19.4,10.9,37.1,28.3,45.8c21,10.5,32.2,33.9,27.1,56.9L87.8,450h160l-23.3-105
			c-5.1-22.9,6.1-46.4,27.1-56.9c17.3-8.7,28.3-26.4,28.3-45.8V210C279.8,167.6,272.9,125.5,259.5,85.3L259.5,85.3z"/>
	</g>
	<g>
		<path class="st2" d="M231.8,482h-128c-8.8,0-16-7.2-16-16v-16h160v16C247.8,474.8,240.6,482,231.8,482z"/>
	</g>
	<g>
		<path class="st3" d="M135.8,482h96c8.8,0,16-7.2,16-16v-16h-80C167.8,467.6,153.4,482,135.8,482z"/>
	</g>
	<g>
		<path class="st4" d="M259.5,85.3l-8.1-24.3c-2.2-6.5-8.3-10.9-15.2-10.9h-68.5v192.4c0,19.4-10.9,37.1-28.3,45.8
			c-15.3,7.6-25.3,22.1-27.7,38.3c0.6,3.8,0.7,7.7,0.4,11.6h31.6c13.3,0,24,10.7,24,24v88h80l-23.3-105
			c-5.1-22.9,6.1-46.4,27.1-56.9c17.3-8.7,28.3-26.4,28.3-45.8V210C279.8,167.6,272.9,125.5,259.5,85.3L259.5,85.3z"/>
	</g>
	<g>
		<circle class="st4" cx="114.4" cy="268.6" r="16"/>
	</g>
	<g>
		<circle class="st4" cx="94.4" cy="150" r="12"/>
	</g>
	<g>
		<circle class="st4" cx="151.8" cy="210" r="8"/>
	</g>
	<g>
		<ellipse transform="matrix(0.1602 -0.9871 0.9871 0.1602 43.7214 375.3383)" class="st1" cx="242.4" cy="162" rx="16" ry="16"/>
	</g>
	<g>
		<circle class="st1" cx="187.8" cy="291.3" r="12"/>
	</g>
	<g>
		<circle class="st1" cx="205.1" cy="220.6" r="8"/>
	</g>
	<g>
		<path class="st5" d="M167.8,50v45.3h-95c1-3.4,2.1-6.7,3.2-10.1l8.1-24.3C86.3,54.4,92.4,50,99.3,50H167.8z"/>
	</g>
	<g>
		<path class="st6" d="M262.7,95.3h-95V50h68.5c6.9,0,13,4.4,15.2,10.9l8.1,24.3C260.6,88.6,261.7,91.9,262.7,95.3z"/>
	</g>
	<g>
		<path class="st0" d="M151.8,50v96c0,8.8,7.2,16,16,16s16-7.2,16-16v-32c0-8.8,7.2-16,16-16s16,7.2,16,16s7.2,16,16,16
			s16-7.2,16-16V50c0-8.8-7.2-16-16-16h-64C158.9,34,151.8,41.1,151.8,50z"/>
	</g>
	<g>
		<path class="st7" d="M131.4,354c-3.7,0-6.8,2.5-7.6,6.1l-16.5,74.3c-1.7,7.6-2.8,15.4-3.2,23.2c-0.3,4.6,3.4,8.4,8,8.4
			c4.2,0,7.7-3.3,8-7.6c0.4-8.1,1.5-16.1,3.3-24.1l15.8-70.9C140.1,358.6,136.4,354,131.4,354L131.4,354z"/>
	</g>
	<g>
		<path class="st7" d="M96.7,71.2L92,85.3C78.6,125.5,71.8,167.6,71.8,210v31.7c0,4.3,3.2,8,7.5,8.3c4.7,0.3,8.5-3.4,8.5-8v-32
			c0-42.4,6.8-84.5,20.2-124.7l3.1-9.3c1.6-4.9-2-10-7.2-10C100.6,66,97.7,68.1,96.7,71.2z"/>
	</g>
</g>
<circle class="st8" cx="163.9" cy="193.9" r="124"/>
<g>
	<path class="st9" d="M217.8,126.8C217.8,126.8,217.8,126.8,217.8,126.8l-17.4-33.6c-0.1-0.1-0.2-0.2-0.4-0.2s-0.3,0.1-0.4,0.2
		l-17.4,33.5c0,0,0,0,0,0c-1.8,4.9-1.6,10.2,0.5,15c2.2,4.8,6.1,8.4,11,10.2c2,0.8,4.1,1.2,6.3,1.2c0,0,0,0,0,0s0,0,0,0
		c2.1-0.1,4.3-0.5,6.3-1.2c4.9-1.8,8.8-5.5,11-10.2C219.5,137,219.7,131.7,217.8,126.8z"/>
	<g>
		<path class="st10" d="M201.4,149.9c-4.2-4.1-6.5-9.6-6.5-15.5c0,0,0,0,0-0.1l4.7-40.9l-17.3,33.3c0,0,0,0,0,0
			c-1.8,4.9-1.6,10.2,0.5,15c2.2,4.8,6.1,8.4,11,10.2c2,0.8,4.1,1.2,6.3,1.2c0,0,0,0,0,0s0,0,0,0c1.6,0,3.1-0.3,4.6-0.7
			C203.5,151.8,202.4,150.9,201.4,149.9z"/>
		<path class="st10" d="M244.8,135.8C244.8,135.8,244.7,135.8,244.8,135.8l-8.6-16.6c-0.1-0.1-0.2-0.2-0.4-0.2s-0.3,0.1-0.4,0.2
			l-8.6,16.5c0,0,0,0,0,0c-0.9,2.5-0.8,5.2,0.3,7.6c1.1,2.4,3.1,4.2,5.5,5.2c1,0.4,2.1,0.6,3.2,0.6c0,0,0,0,0,0s0,0,0,0
			c1.1,0,2.1-0.2,3.2-0.6C244.1,146.6,246.7,140.9,244.8,135.8z"/>
	</g>
	<path class="st9" d="M244.8,135.8C244.8,135.8,244.7,135.8,244.8,135.8l-8.6-16.6c-0.1-0.1-0.2-0.2-0.4-0.2c0,0,0,0,0,0l-3.4,19.6
		c0,0,0,0,0,0.1c-0.1,2.9,0.9,5.7,2.8,7.9c0.8,0.9,1.8,1.7,2.9,2.3c0.3-0.1,0.6-0.2,0.9-0.3C244.1,146.6,246.7,140.9,244.8,135.8z"
		/>
	<path class="st10" d="M227.7,161.9l-5.7-11c-0.1-0.1-0.2-0.2-0.4-0.2c-0.2,0-0.3,0.1-0.4,0.2l-5.7,11c0,0,0,0,0,0
		c-1.3,3.5,0.5,7.4,3.9,8.7c0.7,0.3,1.4,0.4,2.1,0.4c0,0,0,0,0,0c0,0,0,0,0,0c0.7,0,1.5-0.2,2.1-0.4
		C227.2,169.3,229,165.4,227.7,161.9C227.7,161.9,227.7,161.9,227.7,161.9z"/>
	<path class="st9" d="M227.7,162C227.7,161.9,227.7,161.9,227.7,162l-5.7-11.1c-0.1-0.1-0.2-0.2-0.4-0.2c0,0-0.1,0-0.1,0l-2.3,13.8
		c0,0,0,0,0,0.1c-0.1,2.6,1.1,5,3,6.4c0.5-0.1,1.1-0.2,1.6-0.4C227.2,169.3,229,165.4,227.7,162z"/>
</g>
<g id="_x30_30---Malt">
	<path id="Shape" class="st11" d="M261.5,249.7c1.9-5.6,3-11.4,3.4-17.3c0.2-2.4,0.3-5,0.4-7.6c0-0.5,0-1.1,0-1.6
		c0-5.3-0.4-10.6-1.2-15.8c-0.5-3.1-1.2-6.1-2.1-9.1c-0.2-0.6-0.4-1.1-0.5-1.6c0.1-0.1,0.2-0.2,0.3-0.3c4.7-4.7,7.2-9.8,5.7-11.4
		c-0.6-0.6-1.6-0.6-2.9-0.2c-1.8,0.7-3.5,1.6-5,2.8c-0.5,0.4-0.9,0.7-1.4,1.2c-0.5-0.3-1.1-0.5-1.7-0.8c-4.7-2-11.8-3.3-19.9-3.5
		c-0.7,0-1.4,0-2.1,0c-0.5,0-0.9,0-1.3,0c-6.7,0-13.4,1-19.7,3.2c-0.9,0.3-1.7,0.7-2.6,1.2c-0.3-0.3-0.6-0.5-1-0.8
		c-1.4-1.1-2.9-2.1-4.5-2.8c-1.6-0.7-2.9-0.9-3.6-0.4c-0.1,0.1-0.1,0.1-0.2,0.2c-1.6,1.6,1,6.6,5.7,11.4c0.1,0.1,0.2,0.2,0.3,0.3
		c-0.2,0.5-0.4,1.1-0.5,1.6c-0.9,3-1.6,6-2.1,9.1c-0.8,5.2-1.2,10.5-1.2,15.8c0,0.5,0,1.1,0,1.6c0,2.6,0.2,5.2,0.4,7.6
		c0.4,5.9,1.5,11.7,3.4,17.3c-0.1,0.1-0.2,0.2-0.3,0.3c-4.7,4.7-7.2,9.8-5.7,11.4c0.1,0.1,0.1,0.1,0.2,0.2c0.7,0.5,2,0.3,3.6-0.4
		c1.6-0.7,3.1-1.7,4.5-2.8c0.3-0.3,0.6-0.5,1-0.8c0.8,0.4,1.7,0.8,2.6,1.2h0c6.4,2.1,13,3.2,19.7,3.2c0.4,0,0.9,0,1.3,0
		c0.7,0,1.4,0,2.1,0c8-0.2,15.1-1.5,19.9-3.5c0.6-0.3,1.2-0.5,1.7-0.8c0.5,0.4,0.9,0.8,1.4,1.2c1.5,1.2,3.2,2.2,5,2.8
		c1.3,0.4,2.3,0.4,2.9-0.2c1.6-1.6-1-6.6-5.7-11.4C261.7,249.9,261.6,249.8,261.5,249.7z M206,233c0.7,0.2,1.4,0.5,2.2,0.7
		c0.2,0,0.3,0.1,0.5,0.1c-0.2,0-0.3-0.1-0.5-0.1v0C207.5,233.5,206.7,233.3,206,233z"/>
	<path id="Shape_1_" class="st11" d="M261.5,249.7c1.9-5.6,3-11.4,3.4-17.3c0.2-2.4,0.3-5,0.4-7.6c0-0.5,0-1.1,0-1.6
		c0-5.3-0.4-10.6-1.2-15.8c-0.5-3.1-1.2-6.1-2.1-9.1c-0.2-0.6-0.4-1.1-0.5-1.6c0.1-0.1,0.2-0.2,0.3-0.3c4.7-4.7,7.2-9.8,5.7-11.4
		c-0.6-0.6-1.6-0.6-2.9-0.2c-1.8,0.7-3.5,1.6-5,2.8c-0.5,0.4-0.9,0.7-1.4,1.2c-0.5-0.3-1.1-0.5-1.7-0.8c-4.7-2-11.8-3.3-19.9-3.5
		c-0.7,0-1.4,0-2.1,0c-0.5,0-0.9,0-1.3,0c-6.7,0-13.4,1-19.7,3.2c-0.9,0.3-1.7,0.7-2.6,1.2c-0.3-0.3-0.6-0.5-1-0.8
		c-1.4-1.1-2.9-2.1-4.5-2.8c-1.6-0.7-2.9-0.9-3.6-0.4c-0.1,0.1-0.1,0.1-0.2,0.2c-1.6,1.6,1,6.6,5.7,11.4c0.1,0.1,0.2,0.2,0.3,0.3
		c-0.2,0.5-0.4,1.1-0.5,1.6c-0.9,3-1.6,6-2.1,9.1c-0.8,5.2-1.2,10.5-1.2,15.8c0,0.5,0,1.1,0,1.6c0,2.6,0.2,5.2,0.4,7.6
		c0.4,5.9,1.5,11.7,3.4,17.3c-0.1,0.1-0.2,0.2-0.3,0.3c-4.7,4.7-7.2,9.8-5.7,11.4c0.1,0.1,0.1,0.1,0.2,0.2c0.7,0.5,2,0.3,3.6-0.4
		c1.6-0.7,3.1-1.7,4.5-2.8c0.3-0.3,0.6-0.5,1-0.8c0.8,0.4,1.7,0.8,2.6,1.2h0c6.4,2.1,13,3.2,19.7,3.2c0.4,0,0.9,0,1.3,0
		c0.7,0,1.4,0,2.1,0c8-0.2,15.1-1.5,19.9-3.5c0.6-0.3,1.2-0.5,1.7-0.8c0.5,0.4,0.9,0.8,1.4,1.2c1.5,1.2,3.2,2.2,5,2.8
		c1.3,0.4,2.3,0.4,2.9-0.2c1.6-1.6-1-6.6-5.7-11.4C261.7,249.9,261.6,249.8,261.5,249.7z M208.3,233.7L208.3,233.7
		c-0.8-0.2-1.5-0.4-2.2-0.7C206.7,233.3,207.5,233.5,208.3,233.7c0.2,0,0.3,0.1,0.5,0.1C208.6,233.8,208.4,233.7,208.3,233.7z
		 M211,234.3L211,234.3c0.6,0.1,1.3,0.3,1.9,0.4C212.2,234.6,211.6,234.5,211,234.3z"/>
	<path id="Shape_2_" class="st12" d="M265.3,223.1c0,0.5,0,1.1,0,1.6c0,2.6-0.2,5.2-0.4,7.6c-0.9,0.4-1.8,0.7-2.8,1
		c-6.4,1.9-16.4,3.2-27.6,3.2c-0.7,0-1.3,0-2,0c-0.6,0-1.2,0-1.8,0c-0.3,0-0.7,0-1,0c-1.6,0-3.1-0.1-4.6-0.2c-0.6,0-1.2-0.1-1.8-0.1
		c-0.5,0-0.9-0.1-1.3-0.1c-1.4-0.1-2.8-0.3-4.2-0.5c-1.4-0.2-2.7-0.4-4-0.6l-0.9-0.2c-1.5-0.3-2.9-0.6-4.1-0.9
		c-0.2,0-0.3-0.1-0.5-0.1c-0.8-0.2-1.5-0.4-2.2-0.7c-0.3-0.1-0.5-0.2-0.7-0.2c-0.4-0.1-0.8-0.3-1.2-0.5c-0.2-2.4-0.3-5-0.4-7.6
		c0-0.5,0-1.1,0-1.6c0-5.3,0.4-10.6,1.2-15.8c1.3,0.5,2.5,0.9,3.8,1.2c8.4,1.9,17.1,2.8,25.7,2.6c10.9,0,20.6-1.2,27-3
		c0.9-0.3,1.8-0.5,2.6-0.8C264.9,212.5,265.3,217.8,265.3,223.1z"/>
	<path id="Shape_3_" class="st11" d="M267.5,261.3c-0.6,0.6-1.6,0.6-2.9,0.2c-1.8-0.7-3.5-1.6-5-2.8c-0.5-0.4-0.9-0.7-1.4-1.2
		c-0.5,0.3-1.1,0.5-1.7,0.8c-4.7,2-11.8,3.3-19.9,3.5c-0.7,0-1.4,0-2.1,0c-0.5,0-0.9,0-1.3,0c-6.7,0-13.4-1-19.7-3.2h0
		c-0.9-0.3-1.7-0.7-2.6-1.2c-0.3,0.3-0.6,0.5-1,0.8c-1.4,1.1-2.9,2.1-4.5,2.8c-1.6,0.7-2.9,0.9-3.6,0.4c-0.1-0.1-0.1-0.1-0.2-0.2
		c-1.6-1.6,1-6.6,5.7-11.4c0.1-0.1,0.2-0.2,0.3-0.3c-1.9-5.6-3-11.4-3.4-17.3c0.4,0.2,0.8,0.3,1.2,0.5c0.2,0.1,0.5,0.2,0.7,0.2
		c0.7,0.2,1.4,0.5,2.2,0.7v0c0.2,0,0.3,0.1,0.5,0.1c0.7,0.2,1.4,0.4,2.2,0.5c0.6,0.1,1.3,0.3,1.9,0.4l0.9,0.2
		c0.6,0.1,1.3,0.2,1.9,0.3h0c0.7,0.1,1.3,0.2,2,0.3c1.3,0.2,2.7,0.3,4.2,0.5c0.4,0,0.9,0.1,1.3,0.1c0.6,0.1,1.2,0.1,1.8,0.1
		c1.5,0.1,3,0.2,4.6,0.2c0.3,0,0.7,0,1,0c0.6,0,1.2,0,1.8,0c0.6,0,1.3,0,2,0c11.3,0,21.3-1.2,27.6-3.2c0.9-0.3,1.9-0.6,2.8-1
		c-0.4,5.9-1.5,11.7-3.4,17.3c0.1,0.1,0.2,0.2,0.3,0.3C266.5,254.7,269,259.8,267.5,261.3z"/>
	<path id="Shape_4_" class="st11" d="M262,198.1c0.9,3,1.6,6,2.1,9.1c-0.8,0.3-1.6,0.6-2.6,0.8c-6.4,1.8-16.1,3-27,3
		c-8.7,0.1-17.3-0.8-25.7-2.6c-1.3-0.3-2.6-0.7-3.8-1.2c0.5-3.1,1.2-6.1,2.1-9.1c0.2-0.6,0.4-1.1,0.5-1.6c-0.1-0.1-0.2-0.2-0.3-0.3
		c-4.7-4.7-7.2-9.8-5.7-11.4c0.1-0.1,0.1-0.1,0.2-0.2c0.7-0.5,2-0.3,3.6,0.4c1.6,0.7,3.1,1.7,4.5,2.8c0.3,0.3,0.6,0.5,1,0.8
		c0.8-0.4,1.7-0.8,2.6-1.2c6.4-2.1,13-3.2,19.7-3.2c0.4,0,0.9,0,1.3,0c0.7,0,1.4,0,2.1,0c8,0.2,15.1,1.5,19.9,3.5
		c0.6,0.3,1.2,0.5,1.7,0.8c0.5-0.4,0.9-0.8,1.4-1.2c1.5-1.2,3.2-2.2,5-2.8c1.3-0.4,2.3-0.4,2.9,0.2c1.6,1.6-1,6.6-5.7,11.4
		c-0.1,0.1-0.2,0.2-0.3,0.3C261.6,197,261.8,197.5,262,198.1z"/>
	<path id="Shape_5_" class="st12" d="M234.5,257.8c-10.6,0-18.2-2-21.8-3.9c-0.6-0.4-0.9-1.1-0.5-1.8c0.3-0.6,1.1-0.9,1.8-0.6
		c3.3,1.7,10.4,3.6,20.6,3.6c10.1,0,17.3-1.8,20.6-3.6c0.4-0.2,0.9-0.2,1.4,0s0.7,0.7,0.6,1.2s-0.3,0.9-0.7,1.1
		C252.7,255.8,245.1,257.8,234.5,257.8z"/>
	<path id="Shape_6_" class="st12" d="M255.7,194.7c-0.2,0-0.4-0.1-0.6-0.2c-3.3-1.7-10.4-3.6-20.6-3.6c-10.1,0-17.3,1.8-20.6,3.6
		c-0.7,0.3-1.5,0.1-1.8-0.6c-0.3-0.7-0.1-1.5,0.6-1.8c3.6-1.9,11.2-3.9,21.8-3.9c10.6,0,18.2,2,21.8,3.9c0.5,0.3,0.8,0.9,0.7,1.5
		C256.8,194.3,256.3,194.7,255.7,194.7L255.7,194.7z"/>
	<path id="Shape_7_" class="st13" d="M220.6,230.8L220.6,230.8c-0.4,0-0.8-0.2-1-0.4c-0.2-0.3-0.4-0.6-0.3-1
		c0.2-3.3,0.4-6.4,0.6-9.4c-0.9,0.9-2,2-3.2,3.1c-0.3,0.3-0.7,0.4-1.1,0.4s-0.8-0.3-1-0.7c-0.6-1-1.2-2.1-1.8-3.1
		c-0.2-0.3-0.4-0.6-0.6-1c-0.3,2-0.5,4-0.8,6l-0.4,3.3c-0.1,0.7-0.8,1.2-1.5,1.1c-0.7-0.1-1.2-0.8-1.1-1.5l0.4-3.3
		c0.4-3.3,0.9-6.6,1.3-9.9c0.1-0.6,0.5-1,1-1.2s1.1,0.1,1.4,0.6c0.9,1.5,1.7,3,2.6,4.5c0.3,0.5,0.6,1.1,0.9,1.6
		c1.8-1.7,3.1-3.1,4.4-4.5c0.4-0.4,1-0.6,1.5-0.3s0.8,0.8,0.8,1.3c-0.3,4.2-0.6,8.5-0.9,13.1C221.9,230.2,221.3,230.7,220.6,230.8z"
		/>
	<path id="Shape_8_" class="st13" d="M235.9,231c-0.7,0-1.3-0.6-1.3-1.3c-0.1-1.4,0-3,0-4.5c0-1.6,0.1-3.3,0-4.7
		c-0.1-1.7-0.8-2.4-2.8-2.8c-0.3,0-0.6,0-0.8,0c-2.1,0.4-2.8,1-3,2.8c-0.1,1.3-0.2,2.9-0.2,4.5c-0.1,1.6-0.1,3.3-0.2,4.7
		c-0.1,0.7-0.7,1.3-1.5,1.2c-0.7-0.1-1.3-0.7-1.2-1.5c0.1-1.4,0.2-3,0.2-4.5c0.1-1.6,0.1-3.3,0.2-4.7c0.4-3.9,3.1-4.9,5.2-5.2
		c0.6-0.1,1.2-0.1,1.8,0c2.1,0.4,4.8,1.3,5,5.3c0.1,1.5,0,3.2,0,4.9c0,1.5,0,3,0,4.3c0,0.4-0.1,0.7-0.4,1S236.3,231,235.9,231
		L235.9,231z"/>
	<path id="Shape_9_" class="st13" d="M231.7,224.4c-0.9,0-1.8,0-2.7,0l-2.7,0c-0.7,0-1.3-0.6-1.3-1.3s0.6-1.3,1.3-1.3l2.7,0
		c2.2,0,4.5,0,6.8,0h0c0.7,0,1.3,0.6,1.4,1.3s-0.6,1.3-1.3,1.4C234.5,224.4,233.1,224.4,231.7,224.4z"/>
	<path id="Shape_10_" class="st13" d="M245,231.1c-0.4,0-0.8,0-1.2-0.1c-2.2-0.1-3.9-1.8-3.8-4c-0.1-1.6-0.1-3.4,0-5.1
		c0-1.8,0-3.7-0.1-5.5c0-0.4,0.1-0.7,0.3-1c0.2-0.3,0.6-0.4,0.9-0.4c0.7,0,1.3,0.5,1.4,1.3c0.1,1.8,0.1,3.8,0.1,5.6c0,1.8,0,3.4,0,5
		c0,1,0.3,1.3,1.5,1.5c0.6,0.1,1.2,0.1,1.9,0c0.7,0,1.4,0,2,0c0.7,0.1,1.3,0.7,1.2,1.5c0,0.4-0.2,0.7-0.5,0.9
		c-0.3,0.2-0.6,0.3-1,0.3c-0.6,0-1.1,0-1.7,0C245.8,231.1,245.4,231.1,245,231.1z"/>
	<path id="Shape_11_" class="st13" d="M247.9,217.5c-0.7,0-1.4-0.6-1.4-1.3c0-0.7,0.6-1.4,1.3-1.4c1.8-0.1,3.6-0.3,5.4-0.4
		c1.7-0.2,3.5-0.3,5.3-0.4c0.7,0,1.4,0.5,1.4,1.3c0,0.7-0.5,1.4-1.3,1.4c-1.7,0.1-3.5,0.2-5.2,0.4
		C251.6,217.2,249.8,217.4,247.9,217.5L247.9,217.5z"/>
	<path id="Shape_12_" class="st13" d="M253.3,231c-0.7,0-1.3-0.6-1.3-1.3c0-1.6,0-3.3,0-4.9c0-2.9,0.1-6-0.1-8.9
		c0-0.7,0.5-1.4,1.3-1.4c0.7,0,1.4,0.5,1.4,1.3c0.2,3.1,0.1,6.1,0.1,9.1c0,1.6,0,3.2,0,4.8c0,0.4-0.1,0.7-0.4,0.9
		C254,230.9,253.7,231,253.3,231L253.3,231z"/>
</g>
<g>
	<path class="st14" d="M110.2,301.1c0,0-0.1,0-0.2,0c-0.4-0.1-0.7-0.5-0.6-1c6.7-31.9,13.3-50.6,17.7-60.7c4.8-11,8-14.4,8.1-14.6
		c0.3-0.3,0.8-0.3,1.1,0c0.3,0.3,0.3,0.8,0,1.1c0,0-3.2,3.5-7.9,14.3c-4.3,10-10.8,28.6-17.5,60.2
		C110.9,300.8,110.6,301.1,110.2,301.1z"/>
	<path class="st15" d="M140,225.5c4.9-5.1,7.3-17.8,7.3-17.8s-9.8,2.6-14.1,12.5c-0.5,1.1-1.2,2.4-0.5,4.5
		C133.3,226.6,135.8,230,140,225.5z"/>
	<path class="st16" d="M147.2,207.7c0,0-2.4,12.7-7.3,17.8c-2.9,3-4.9,2.5-6.1,1.3L147.2,207.7z"/>
	<path class="st15" d="M132.3,229.1c0-6.7-6.7-16.8-6.7-16.8s-5,8.2-1.4,17.8c0.3,1.1,0.8,2.4,2.6,3.5
		C128.5,234.4,132.3,235,132.3,229.1z"/>
	<path class="st16" d="M125.6,212.2c0,0,6.7,10.3,6.7,16.8c0,3.8-1.7,4.9-3.2,4.9L125.6,212.2z"/>
	<path class="st15" d="M136.6,238.5c6.2-2.5,13.2-12.4,13.2-12.4s-9.6-1.6-17.1,5.2c-0.8,0.7-1.9,1.7-2.3,3.7
		C130.4,236.9,131.2,240.7,136.6,238.5z"/>
	<path class="st16" d="M149.9,226.1c0,0-7,9.9-13.2,12.4c-3.6,1.4-5.1,0.2-5.7-1.2L149.9,226.1z"/>
	<path class="st15" d="M126.1,244.8c0-6.7-6.7-16.8-6.7-16.8s-5,8.2-1.4,17.8c0.3,1.1,0.8,2.4,2.6,3.5
		C122.3,250,126.1,250.6,126.1,244.8z"/>
	<path class="st16" d="M119.4,227.9c0,0,6.7,10.3,6.7,16.8c0,3.8-1.7,4.9-3.2,4.9L119.4,227.9z"/>
	<path class="st15" d="M131.7,251c6.2-2.3,13.7-11.9,13.7-11.9s-9.4-1.9-17.2,4.7c-0.8,0.7-2,1.6-2.4,3.7
		C125.5,249.1,126.2,253,131.7,251z"/>
	<path class="st16" d="M145.5,239c0,0-7.4,9.7-13.7,11.9c-3.6,1.3-5.1,0.1-5.7-1.4L145.5,239z"/>
	<path class="st15" d="M121.2,257.9c0-6.7-6.7-16.8-6.7-16.8s-5,8.2-1.4,17.8c0.3,1.1,0.8,2.4,2.6,3.5
		C117.4,263.2,121.2,263.8,121.2,257.9z"/>
	<path class="st16" d="M114.5,241.1c0,0,6.7,10.3,6.7,16.8c0,3.8-1.7,4.9-3.2,4.9L114.5,241.1z"/>
	<path class="st15" d="M126.8,264.5c6.4-1.6,14.8-10.5,14.8-10.5s-9.2-2.9-17.6,2.9c-1,0.6-2.1,1.3-2.8,3.3
		C120.9,262,121.1,265.9,126.8,264.5z"/>
	<path class="st16" d="M141.6,254c0,0-8.3,8.8-14.8,10.5c-3.7,1-5.1-0.5-5.5-2L141.6,254z"/>
	<path class="st15" d="M116.8,273.4c0-6.7-6.7-16.8-6.7-16.8s-5,8.2-1.4,17.8c0.3,1.1,0.8,2.4,2.6,3.5
		C113,278.7,116.8,279.3,116.8,273.4z"/>
	<path class="st16" d="M110.1,256.6c0,0,6.7,10.3,6.7,16.8c0,3.8-1.7,4.9-3.2,4.9L110.1,256.6z"/>
	<path class="st15" d="M122.7,279.3c6.3-2.1,13.9-11.7,13.9-11.7s-9.4-2-17.3,4.4c-0.8,0.7-2,1.6-2.4,3.6
		C116.4,277.2,117.1,281.2,122.7,279.3z"/>
	<path class="st16" d="M136.5,267.4c0,0-7.5,9.6-13.9,11.7c-3.7,1.3-5.1,0-5.7-1.6L136.5,267.4z"/>
	<path class="st14" d="M132.2,304.1c-0.1,0-0.2,0-0.3,0c-0.4-0.2-0.7-0.6-0.5-1c14.7-40.6,24.6-48.7,25-49c0.3-0.3,0.9-0.2,1.1,0.1
		c0.3,0.3,0.2,0.9-0.1,1.1c-0.1,0.1-10,8.3-24.5,48.2C132.8,303.9,132.5,304.1,132.2,304.1z"/>
	<path class="st15" d="M159.8,255c3.8-3,6.7-11.5,6.7-11.5s-6.9,0.8-10.9,7.2c-0.3,0.7-1.1,1.6-0.7,3.1
		C155.1,255.3,156.4,257.8,159.8,255z"/>
	<path class="st16" d="M166.5,243.7c0,0-2.9,8.3-6.7,11.5c-2.1,1.8-3.6,1.2-4.3,0.3L166.5,243.7z"/>
	<path class="st15" d="M154.2,256.8c0.6-4.5-2.9-12.2-2.9-12.2s-4.2,5.1-2.6,12.1c0.1,0.7,0.3,1.7,1.4,2.6
		C151.1,260,153.7,260.8,154.2,256.8z"/>
	<path class="st16" d="M151.3,244.6c0,0,3.6,7.6,2.9,12.2c-0.3,2.6-1.7,3.2-2.8,3L151.3,244.6z"/>
	<path class="st15" d="M156.2,263.6c4.4-1.1,10.3-7.2,10.3-7.2s-6.3-2-12.2,1.9c-0.6,0.5-1.4,1-1.9,2.4
		C152.1,262,152.4,264.6,156.2,263.6z"/>
	<path class="st16" d="M166.5,256.5c0,0-5.9,6.1-10.3,7.2c-2.6,0.6-3.6-0.3-3.8-1.4L166.5,256.5z"/>
	<path class="st15" d="M148.4,267c0.6-4.5-2.9-12.2-2.9-12.2s-4.2,5.1-2.6,12.1c0.1,0.7,0.3,1.7,1.4,2.6
		C145.3,270.1,148,270.9,148.4,267z"/>
	<path class="st16" d="M145.6,254.8c0,0,3.6,7.6,2.9,12.2c-0.3,2.6-1.7,3.2-2.8,3L145.6,254.8z"/>
	<path class="st15" d="M151.7,271.8c4.5-1,10.5-6.8,10.5-6.8s-6.3-2.3-12.2,1.6c-0.6,0.3-1.6,0.8-1.9,2.3
		C147.6,269.8,147.7,272.5,151.7,271.8z"/>
	<path class="st16" d="M162.2,264.8c0,0-6,5.9-10.5,6.8c-2.6,0.6-3.6-0.5-3.7-1.6L162.2,264.8z"/>
	<path class="st15" d="M143.8,275.4c0.6-4.5-2.9-12.2-2.9-12.2s-4.2,5.1-2.6,12.1c0.1,0.7,0.3,1.7,1.4,2.6
		C140.7,278.6,143.3,279.4,143.8,275.4z"/>
	<path class="st16" d="M140.9,263.3c0,0,3.6,7.6,2.9,12.2c-0.3,2.6-1.7,3.2-2.8,3L140.9,263.3z"/>
	<path class="st15" d="M147,280.5c4.5-0.5,11.1-5.7,11.1-5.7s-6-2.9-12.3,0.2c-0.7,0.3-1.6,0.7-2.1,2
		C143.2,278.2,143.1,280.8,147,280.5z"/>
	<path class="st16" d="M158.2,274.7c0,0-6.6,5.2-11.1,5.7c-2.6,0.2-3.5-0.8-3.6-1.9L158.2,274.7z"/>
	<path class="st15" d="M139.4,285.6c0.6-4.5-2.9-12.2-2.9-12.2s-4.2,5.1-2.6,12.1c0.1,0.7,0.3,1.7,1.4,2.6
		C136.2,288.8,138.8,289.6,139.4,285.6z"/>
	<path class="st16" d="M136.5,273.4c0,0,3.6,7.6,2.9,12.2c-0.3,2.6-1.7,3.2-2.8,3L136.5,273.4z"/>
	<path class="st15" d="M142.8,290.1c4.5-0.8,10.6-6.7,10.6-6.7s-6.2-2.3-12.2,1.3c-0.6,0.3-1.6,0.8-2,2.3
		C138.8,288.2,138.9,290.9,142.8,290.1z"/>
	<path class="st16" d="M153.3,283.4c0,0-6.1,5.9-10.6,6.7c-2.6,0.5-3.6-0.5-3.7-1.6L153.3,283.4z"/>
</g>
<g>
	<path class="st17" d="M126.6,129.4h-6.7v13.5h6.7h6.7v-13.5H126.6z"/>
	<path class="st18" d="M126.6,129.4h6.7v13.5h-6.7V129.4z"/>
	<path class="st18" d="M126.6,181.1l-10.7,7.7c0.9,4.6,3.2,8.9,6.5,12.2l4.2,4.3l4.2-4.3c3.3-3.3,5.6-7.6,6.5-12.2L126.6,181.1z"/>
	<path class="st19" d="M137.3,188.8l-10.7-7.7v24.2l4.2-4.3C134.1,197.6,136.4,193.4,137.3,188.8z"/>
	<path class="st18" d="M145.8,178.9l-11.9-3.5l-5.3,12.3c2.7,2.3,5.9,4.1,9.4,5l5.7,1.5l1.5-5.7
		C146.1,185.4,146.3,182.1,145.8,178.9L145.8,178.9z"/>
	<path class="st17" d="M117.1,175.4l-9.7,3.5c-0.5,3.2-0.3,6.4,0.6,9.6l1.5,5.7l5.7-1.5c3.4-0.9,6.7-2.6,9.4-5L117.1,175.4z"/>
	<path class="st20" d="M126.6,168.6l-10.9,6.2c0.7,5.1,3.1,10,6.7,13.7l4.2,4.2l4.2-4.2c3.7-3.7,6.1-8.5,6.7-13.7L126.6,168.6z"/>
	<path class="st17" d="M137.5,174.9l-10.9-6.2v24.1l4.2-4.2C134.5,184.9,136.9,180,137.5,174.9L137.5,174.9z"/>
	<path class="st18" d="M116,159.9l-13.6,5.4c-1,4-1,8.2,0,12.1l1.5,5.7l5.7-1.5c5.6-1.5,10.5-5,13.6-9.8L116,159.9z"/>
	<path class="st19" d="M150.9,165.3l-13.6-5.4l-7.3,11.9c3.2,4.8,8,8.3,13.6,9.8l5.7,1.5l1.5-5.7
		C151.9,173.4,151.9,169.2,150.9,165.3L150.9,165.3z"/>
	<path class="st17" d="M126.6,150.9l-10.9,11c0.7,5,3.1,9.7,6.7,13.3l4.2,4.2l4.2-4.2c3.6-3.6,6-8.3,6.7-13.3L126.6,150.9z"/>
	<path class="st18" d="M137.5,161.9l-10.9-11v28.5l4.2-4.2C134.4,171.6,136.7,166.9,137.5,161.9L137.5,161.9z"/>
	<path class="st20" d="M130.3,138.4h-3.7h-3.7c-13.1,0-23.7,10.6-23.7,23.7v6h6c6.3,0,12.3-2.5,16.8-7c2-2,3.6-4.4,4.7-6.9
		c1.2,2.5,2.7,4.9,4.7,6.9c4.5,4.5,10.4,7,16.8,7h6v-6C154,149.1,143.4,138.4,130.3,138.4L130.3,138.4z"/>
	<path class="st17" d="M148.1,168.1h6v-6c0-13.1-10.6-23.7-23.7-23.7h-3.7v15.8c1.2,2.5,2.7,4.9,4.7,6.9
		C135.8,165.6,141.8,168.1,148.1,168.1z"/>
</g>
<g>
	<path class="st21" d="M463.4,457.3L463.4,457.3c0,19.6-16.5,36.2-36.2,36.2l0,0c-10.3,0-19.6-4.1-26.9-11.4l-115.7-126
		c-4.1-4.1-4.1-10.3,0-14.5l26.9-26.9c4.1-4.1,10.3-4.1,14.5,0l126,116.7C459.3,437.7,463.4,448,463.4,457.3z"/>
	
		<rect x="268.2" y="291" transform="matrix(0.7071 -0.7071 0.7071 0.7071 -138.3002 291.4477)" class="st22" width="28.9" height="43.4"/>
	<path class="st23" d="M293,323l5.2,5.2l10.3-10.3l-31-31l-20.7,20.7l15.5,15.5l0,0C278.5,316.8,286.8,316.8,293,323z"/>
	<path class="st24" d="M163.9,38.9c-85.7,0-155,69.2-155,155s69.2,155,155,155s155-69.2,155-155S249.6,38.9,163.9,38.9z
		 M163.9,317.8c-68.2,0-124-55.8-124-124s55.8-124,124-124s124,55.8,124,124S232,317.8,163.9,317.8z"/>
	<circle class="st25" cx="163.9" cy="193.9" r="124"/>
	<path class="st26" d="M102.9,208.3c5.2-39.3,36.2-70.2,75.4-75.4h1c17.6-2.1,18.6-26.9,2.1-30c-10.3-2.1-20.7-2.1-31-1
		c-40.3,6.2-72.3,38.2-77.5,77.5c-2.1,10.3-1,21.7,1,31c3.1,17.6,27.9,15.5,30-2.1C102.9,209.4,102.9,208.3,102.9,208.3z"/>
	<path class="st27" d="M50.2,204.2c0-68.2,55.8-124,124-124c32,0,59.9,12.4,82.6,31c-22.7-25.8-55.8-41.3-93-41.3
		c-68.2,0-124,55.8-124,124c0,37.2,16.5,70.2,41.3,93C62.6,264.1,50.2,236.2,50.2,204.2z"/>
	<path class="st28" d="M163.9,348.8L163.9,348.8c85.7,0,155-69.2,155-155l0,0c-5.2,0-10.3,4.1-10.3,10.3
		c-2.1,35.1-17.6,67.1-41.3,90.9c-23.8,24.8-56.8,40.3-93,43.4C168,338.5,163.9,343.7,163.9,348.8z"/>
	<path class="st29" d="M163.9,38.9L163.9,38.9c-85.7,0-155,69.2-155,155l0,0c5.2,0,10.3-4.1,10.3-10.3c2.1-34.1,16.5-65.1,38.2-87.8
		c24.8-25.8,58.9-43.4,96.1-46.5C159.7,49.2,163.9,44.1,163.9,38.9z"/>
	<path class="st30" d="M451,430.4l-6.2-5.2c5.2,6.2,8.3,14.5,8.3,22.7l0,0c0,13.4-16.5,18.6-25.8,9.3L318.8,348.8
		c-6.2-6.2-15.5-6.2-21.7,0l-10.3,10.3L399.4,480c6.2,6.2,14.5,11.4,22.7,12.4c11.4,1,22.7-3.1,30-10.3c7.2-7.2,11.4-18.6,10.3-30
		C462.4,443.9,457.2,436.6,451,430.4z"/>
	<path class="st31" d="M344.6,359.2c-1,0-3.1,0-4.1-1l-25.8-25.8c-2.1-2.1-2.1-5.2,0-7.2s5.2-2.1,7.2,0l25.8,25.8
		c2.1,2.1,2.1,5.2,0,7.2C347.7,359.2,345.7,359.2,344.6,359.2z"/>
</g>
</svg>
