<?xml version="1.0" encoding="utf-8"?>
<!-- Generator: Adobe Illustrator 24.1.0, SVG Export Plug-In . SVG Version: 6.00 Build 0)  -->
<svg version="1.1" id="Layer_1" xmlns="http://www.w3.org/2000/svg" xmlns:xlink="http://www.w3.org/1999/xlink" x="0px" y="0px"
	 viewBox="0 0 512 512" style="enable-background:new 0 0 512 512;" xml:space="preserve">
<style type="text/css">
	.st0{fill:#DAA520;}
</style>
<g id="_x30_15---Pints">
	<path id="Shape" class="st0" d="M331.4,501.6c3,7.6,13.5,10.2,26.8,10.2c23.8-1.3,47.3-5.5,70-12.3c20.1-5.5,39.5-12.8,58.2-21.9
		c12.9-6.6,27-15.6,25.2-26.9c-0.4-2.4-1.5-4.7-3.1-6.6c-25.6-42.6-36.4-92.5-30.5-141.8c2.2-33.4-1.1-67-9.7-99.3
		c-0.1-0.5-0.2-1-0.4-1.5c-10.4-40.9-24.3-80.8-41.6-119.3c-0.2-0.5-0.5-0.9-0.7-1.4c-4-7.9-16.1-10-40.7-7.2
		c-24.8,3.3-49.3,8.5-73.3,15.5c-4.2,1.2-8.6,2.5-13.2,3.9c1.4-8.9,2.6-16.5,3.2-21.8c0.4-2.2,0.1-4.4-0.9-6.3
		c-7.8-19.1-64.5-38-100.4-48.2S106.6-7.2,89.8,4.8c-1.9,1.1-3.3,2.9-4.1,4.9c-14.4,32-60,140.7-51.7,220.2
		c5.9,49.3-4.9,99.2-30.5,141.7c-1.6,1.9-2.7,4.2-3.2,6.6c-1.8,11.2,12.3,20.2,25.2,26.8c18.7,9.1,38.2,16.5,58.2,21.9
		c22.8,6.9,46.3,11,70,12.4c13.2,0,23.6-2.7,26.7-10.1c0.6-2.1,0.9-4.4,0.7-6.6c0.5-49.8,17.6-98.1,48.6-137.1
		c3.3-4.3,6.5-8.8,9.6-13.7c9.6,30.8,24,59.9,42.8,86.1c30.9,38.8,48,86.9,48.6,136.5C330.6,496.9,330.8,499.3,331.4,501.6
		L331.4,501.6z M423.6,483.2c-23.3,7.5-47.6,11.4-72,11.6c20.9-12.7,43.6-22.1,67.3-28c23.3-7.5,47.6-11.4,72-11.7
		C470.1,467.9,447.4,477.4,423.6,483.2L423.6,483.2z M345,172c-9.9,0-79.8,0.6-109.9,16.4c-2.6-12.8-4.5-24.2-5.8-33.4
		c1.6,0.1,3.3,0.2,5.2,0.2c6-0.1,12-0.5,17.9-1.2c24.8-3.3,49.3-8.5,73.3-15.5c28.8-8.2,70.9-22,90.5-37c11.6,27,21.5,54.7,29.7,83
		C412.7,172.5,354,172,345,172L345,172z M450.7,205.4c-7.1,6.2-42.8,16.4-105.7,16.4s-98.6-10.2-105.7-16.4
		c7.1-6.2,42.8-16.4,105.7-16.4S443.6,199.3,450.7,205.4z M316.3,105.6c28.5-9,58-14.4,87.8-16.1c-26.2,14.3-54.2,25.2-83.1,32.5
		c-28.5,9.1-58,14.5-87.8,16.1c18.1-10.2,37.3-18.4,57.2-24.5l0.3-0.1C298.5,110.9,306.9,108.2,316.3,105.6L316.3,105.6z
		 M195.7,33.1c29,7.3,56.9,18.2,83.1,32.5c-29.8-1.6-59.3-7-87.8-16.1c-29-7.2-56.9-18.1-83.1-32.4
		C137.8,18.7,167.3,24.1,195.7,33.1z M88.4,410.7c-23.8-5.8-46.5-15.3-67.3-28.1c24.5,0.1,48.8,4,72,11.6
		c23.8,5.9,46.5,15.3,67.5,28C136.1,422.1,111.7,418.2,88.4,410.7z M164.7,404.7c-21.2-11.5-43.7-20.5-67-26.9
		c-23.2-6.9-47-11-71.1-12.4c9.5-19,16.4-39.2,20.6-60c21.2,9,60.6,10.3,81,10.3c21.9,0.3,43.8-1.5,65.3-5.5
		C177.5,339.4,167.7,371.6,164.7,404.7L164.7,404.7z M54.2,290.1c24.1-6.6,49-9.5,74-8.5c25-1,49.9,1.9,74,8.5
		c-24.1,6.6-49,9.5-74,8.5C103.3,299.6,78.3,296.8,54.2,290.1z M216.3,275.2c-0.6,0.8-1.1,1.6-1.7,2.4c-19.1-11.5-64.2-13-86.4-13
		c-19,0-54.6,1.1-76.5,8.6c1.1-15,0.8-30-0.8-44.9c-7-67.5,27.6-158.7,45-199.3c19.6,15,61.7,28.8,90.5,37
		c24,7.1,48.5,12.2,73.3,15.5c5.9,0.7,11.9,1.1,17.9,1.2c1.8,0,3.6-0.1,5.2-0.2c-0.7,4.9-1.6,10.4-2.7,16.5
		c-30.9,10.4-63,24.3-68.8,38.4c-1,1.9-1.3,4.1-0.9,6.3c1.6,12.6,5.1,35.8,11.2,63.4c0.1,0.9,0.3,1.8,0.6,2.7
		c2.9,12.8,6.3,26.5,10.4,40.3C227.8,258.8,222.4,267.2,216.3,275.2L216.3,275.2z M295.7,347.7c-20.4-26.5-35.3-63.1-45.9-98.8
		c-0.1-0.2-0.1-0.4-0.2-0.6c-2.2-7.4-4.2-14.8-6-22c33.1,12.2,92.3,12.6,101.3,12.6c9.9,0,80.4-0.6,110.2-16.6
		c5.8,25.7,7.8,52.1,5.8,78.3c-5.2,47.2,3.3,94.8,24.4,137.3c-24.1,1.4-48,5.5-71.2,12.4c-23.3,6.3-45.8,15.4-67,26.9
		C342.8,430,324.9,385,295.7,347.7L295.7,347.7z"/>
	<circle id="Oval" class="st0" cx="418.1" cy="281.6" r="8.5"/>
	<circle id="Oval_1_" class="st0" cx="418.1" cy="349.9" r="8.5"/>
	<circle id="Oval_2_" class="st0" cx="435.2" cy="315.7" r="8.5"/>
	<circle id="Oval_3_" class="st0" cx="418.1" cy="401.1" r="8.5"/>
	<circle id="Oval_4_" class="st0" cx="145.8" cy="365.4" r="8.5"/>
	<circle id="Oval_5_" class="st0" cx="443.7" cy="418.1" r="8.5"/>
	<circle id="Oval_6_" class="st0" cx="443.7" cy="375.5" r="8.5"/>
</g>
</svg>
