<?xml version="1.0" encoding="utf-8"?>
<!-- Generator: Adobe Illustrator 24.1.0, SVG Export Plug-In . SVG Version: 6.00 Build 0)  -->
<svg version="1.1" id="Layer_1" xmlns="http://www.w3.org/2000/svg" xmlns:xlink="http://www.w3.org/1999/xlink" x="0px" y="0px"
	 viewBox="0 0 209 248" style="enable-background:new 0 0 209 248;" xml:space="preserve">
<style type="text/css">
	.st0{fill:#DAA520;}
</style>
<g>
	<path class="st0" d="M35.1,86.3c19.5,0,30.1-11.4,30.1-32.2c0-19.4-27.4-50.2-28.6-51.6c-0.4-0.3-1-0.5-1.5-0.5
		c-0.5,0-1.1,0.2-1.5,0.7C32.5,3.9,5,34.7,5,54.1C5,74.9,15.7,86.3,35.1,86.3z M35.1,7c5.8,6.8,26.2,31.7,26.2,47.2
		c0,12.8-4.5,28.1-26.2,28.1S8.9,67,8.9,54.2C9.1,38.7,29.4,13.7,35.1,7z"/>
	<path class="st0" d="M91.4,90.3c11.5,0,18.1-7.7,18.1-21c0-12.6-16-29.8-16.6-30.5c-0.4-0.4-0.9-0.7-1.4-0.7s-1.1,0.2-1.4,0.7
		c-0.8,0.7-16.6,18-16.6,30.4C73.3,82.7,79.9,90.3,91.4,90.3z M91.4,43.2c3.8,4.5,14,17.2,14,26.2c0,11.3-4.7,17-14,17
		s-14-5.7-14-17C77.4,60.4,87.5,47.7,91.4,43.2z"/>
	<path class="st0" d="M61.7,82.9c-0.5,0.5-12.6,14.3-12.6,23.4c0,10.2,5.1,16.1,14,16.1c9,0,14-5.9,14-16.1c0-9.1-12-22.9-12.6-23.4
		c-0.4-0.4-1-0.7-1.5-0.7C62.5,82.2,62.1,82.6,61.7,82.9z M63.2,118.4c-6.7,0-10.1-4.1-10.1-12c0-5.5,6.2-14.3,10.1-18.9
		c3.7,4.6,10.1,13.5,10.1,18.9C73.3,114.3,69.9,118.4,63.2,118.4z"/>
	<path class="st0" d="M30.9,78.2c0.1,0,0.1,0,0.2,0c1.1,0,2-0.9,2-1.9c0-1.1-0.8-2-1.8-2.1c-4.2-0.2-8.1-2.2-10.7-5.5
		c-5.4-7-3.6-18.2-3.6-18.3c0.1-1.1-0.5-2.1-1.6-2.3c-1.1-0.2-2.1,0.5-2.3,1.6c-0.1,0.5-2.1,13,4.3,21.3
		C20.7,75.3,25.6,78,30.9,78.2z"/>
	<path class="st0" d="M89.4,82.2c3.7,0,7.2-1.5,9.9-4.3c2.2-2.8,3.1-6.6,2.2-10.2c-0.2-1.1-1.2-1.8-2.3-1.6
		c-1.1,0.2-1.9,1.2-1.6,2.3c0.7,2.4,0.1,4.9-1.3,6.9c-1.9,1.8-4.3,2.7-6.8,2.8c-1.1,0-2,0.9-2,2C87.3,81.4,88.2,82.2,89.4,82.2z"/>
	<path class="st0" d="M62.1,110.6c-0.7-0.2-1.1-0.8-1.3-1.4s-0.1-1.3,0.2-2c0.5-1,0.1-2.2-0.9-2.7c-1-0.5-2.2-0.1-2.7,0.9
		c-0.9,1.5-1,3.4-0.4,5c0.5,1.6,1.8,3,3.4,3.7c1,0.5,2.2,0.1,2.7-0.9C63.6,112.4,63.1,111.1,62.1,110.6L62.1,110.6z"/>
</g>
<g>
	<path class="st0" d="M163.2,28.7c0,18.9,15.3,34.7,34.4,34.7h5.9v-5.9c0-18.9-15.4-34.6-34.5-34.6h-11.8
		c-18.9,0-34.4,15.7-34.4,34.6v5.9h5.9C147.9,63.4,163.2,47.8,163.2,28.7z"/>
	<path class="st0" d="M198.3,70.4c-0.8-0.1-6.5,0.5-15-2.5c-1.3,5.6-3.7,10.8-7.1,15.4c9,8.8,17.5,9.1,20.7,10.3
		C197.6,90.2,201.6,82.7,198.3,70.4z"/>
	<path class="st0" d="M190.6,99.4c-0.8-0.2-4.5-1-9.3-3.5c-1.6,3.9-3.8,7.6-6.6,10.8c6,3.4,9.1,3.4,13.5,4.7
		C189.6,105,190.1,105.8,190.6,99.4z"/>
	<path class="st0" d="M151.7,106.8c-2.7-3.3-4.9-6.9-6.6-10.8c-4.8,2.5-8.5,3.3-9.3,3.5c0.4,5.5,1.4,7.6,2.5,12.2
		C142.7,110.2,145.7,110.2,151.7,106.8L151.7,106.8z"/>
	<path class="st0" d="M171.5,88.9l-8.3,8.3l-8.3-8.3c-1.2,1.1-2.4,2.2-3.7,3.2c1.8,4.6,4.4,8.8,7.9,12.3l4.2,4.2l4.2-4.2
		c3.5-3.5,6.1-7.7,7.8-12.3C173.9,91.1,172.6,90,171.5,88.9L171.5,88.9z"/>
	<path class="st0" d="M128.1,70.4c-3.1,11.9,0.9,20.3,1.4,23.3c3.2-1.2,11.8-1.5,20.7-10.3c-3.4-4.6-5.9-9.9-7.1-15.4
		C134.9,70.9,128.7,70.4,128.1,70.4z"/>
	<path class="st0" d="M163.2,87.2l4.2-4.2c4.9-4.9,8.2-11.3,9.4-18.1c-5.8-3.4-10.2-7.6-13.6-12.7c-3.5,5-7.9,9.3-13.6,12.7
		c1.2,6.8,4.5,13.1,9.4,18.1L163.2,87.2z"/>
	<path class="st0" d="M156.7,112c-1.6,1-3.2,2-4.9,2.6c1.8,4.1,4.2,8,7.2,11.2l4.2,4.2l4.2-4.2c3.2-3.2,5.6-7.1,7.2-11.2
		c-1.8-0.8-3.3-1.8-4.9-2.6l-6.5,6.5L156.7,112z"/>
	<path class="st0" d="M169.1,15.8c1.6,0,3.2,0.1,4.8,0.3V8.7h-21.3v7.4c1.5-0.2,3.2-0.3,4.8-0.3C157.4,15.8,169.1,15.8,169.1,15.8z"
		/>
</g>
<g>
	<g>
		<g>
			<path class="st0" d="M68.8,229.4l6.3,12c0.9,1.6,3,2.3,4.6,1.4c1.6-0.9,2.3-3,1.4-4.6l-6.3-12C73.3,228.1,71.1,229.2,68.8,229.4z
				"/>
		</g>
	</g>
	<g>
		<g>
			<path class="st0" d="M23.5,135.3l-0.7-0.1l-0.3,0.7c-2.3,5.3-1.8,12.4,1.5,18.6c3.3,6.2,8.9,10.7,14.6,11.7l0.7,0.1l0.3-0.7
				c0.2-0.5,0.4-1.1,0.7-1.8c1.5-5,0.8-11.4-2.2-17C34.8,140.9,29.2,136.4,23.5,135.3z"/>
		</g>
	</g>
	<g>
		<g>
			<path class="st0" d="M10.4,156.9c-1.3,0.8-1.9,2.4-1.2,3.7l5.5,10.4c1.8,5,6.3,9.7,12.2,12.4c6.5,3,13.6,3.1,18.7,0.4l0.7-0.3
				l-0.2-0.7c-1.3-5.6-6.2-10.9-12.6-13.8c-4.8-2.2-10.1-2.8-14.6-1.9l-4.8-9C13.4,156.7,11.7,156.1,10.4,156.9z"/>
		</g>
	</g>
	<g>
		<g>
			<path class="st0" d="M36.9,210.2l-0.7,0.3l0.2,0.7c1.3,5.6,6.2,10.9,12.6,13.8c6.3,2.8,13.6,3.1,18.7,0.4l0.7-0.3l-0.2-0.7
				c-1.3-5.6-6.2-10.9-12.6-13.8C49.1,207.7,42,207.6,36.9,210.2z"/>
		</g>
	</g>
	<g>
		<g>
			<path class="st0" d="M25.8,189.3l-0.7,0.3l0.2,0.7c1.3,5.6,6.2,10.9,12.6,13.8c6.3,2.8,13.6,3.1,18.7,0.4l0.7-0.3l-0.2-0.7
				c-1.3-5.6-6.2-10.9-12.6-13.8C38.1,186.9,30.9,186.7,25.8,189.3z"/>
		</g>
	</g>
	<g>
		<g>
			<path class="st0" d="M76.9,189c-5,2.7-9,8.8-10.2,15.7c-1.2,6.9,0.4,13.9,4.4,18.2l0.4,0.5l0.7-0.3c4.3-2.3,7.7-6.9,9.4-12.4
				c0.3-1.1,0.5-2.2,0.8-3.3c1.2-6.9-0.4-13.9-4.4-18.2l-0.4-0.5L76.9,189z"/>
		</g>
	</g>
	<g>
		<g>
			<path class="st0" d="M65.9,168.1c-5,2.7-9,8.8-10.2,15.7c-1.2,6.9,0.4,13.9,4.4,18.2l0.4,0.5l0.7-0.3c4.3-2.3,7.7-6.9,9.4-12.4
				c0.3-1.1,0.5-2.2,0.8-3.3c1.2-6.9-0.4-13.9-4.4-18.2l-0.4-0.5L65.9,168.1z"/>
		</g>
	</g>
	<g>
		<g>
			<path class="st0" d="M47.7,137.1c-1.3,0.8-1.9,2.4-1.2,3.7l4.8,9c-3.3,3.2-5.7,7.9-6.7,13.1c-1.2,6.9,0.4,13.9,4.4,18.2l0.4,0.5
				l0.7-0.3c4.3-2.3,7.7-6.9,9.4-12.4c0.3-1.1,0.5-2.2,0.8-3.3c1.1-6.3-0.2-12.7-3.4-17.1l-5.5-10.4C50.8,136.9,49,136.3,47.7,137.1
				z"/>
		</g>
	</g>
</g>
<g>
	<g>
		<path class="st0" d="M159,186.6c-0.5-1.3-2.4-1.3-3,0l-4.4,11.6c-0.7,1.6,1.9,2.5,2.4,1l0.8-2.1h5.3l0.8,2.1
			c0.7,1.6,3.1,0.7,2.5-0.9L159,186.6z M155.9,194.5l1.6-4.4l1.6,4.4H155.9z"/>
		<path class="st0" d="M146.4,186.8c-0.3-1.6-2.6-1.8-3.1-0.1l-2.3,7.9l-2.3-8c-0.4-1.5-2.7-1.5-3.1,0.2l-2.1,11.5
			c-0.3,1.8,2.3,2.2,2.6,0.4l1.3-7.1l2.1,7.1l0,0c0.4,1.4,2.5,1.4,3,0l0,0l2.1-7.1l1.3,7.1c0.3,1.8,3,1.2,2.6-0.5L146.4,186.8z"/>
		<path class="st0" d="M172.2,197.3L172.2,197.3c-1,0-2.1,0-2.8,0v-10.5c0-1.8-2.6-1.8-2.6,0v11.8c0,0.7,0.4,1.2,1.1,1.3
			c0.3,0,3.9,0,4.4,0C173.9,199.9,173.9,197.3,172.2,197.3L172.2,197.3z"/>
		<path class="st0" d="M184,185.5h-6.5c-1.8,0-1.8,2.6,0,2.6h2v10.5c0,1.8,2.6,1.8,2.6,0v-10.5h2C185.7,188.2,185.7,185.5,184,185.5
			L184,185.5z"/>
		<path class="st0" d="M197.6,156.9c3-4.4,5.9-9.6,3.7-13c-1.8-2.7-6.2-2.4-13.5,1c-4.3-1.5-8.9-2.6-13.9-3.2
			c-5.3-0.7-10.5-0.8-14.5-0.8c-9.1,0-18.8,0.4-28.4,3.9c-7.2-3.4-11.7-3.7-13.5-1c-2.1,3.4,0.8,8.6,3.7,13
			c-5.7,23.5-5.6,47,0.1,71.8c-3,4.4-5.9,9.7-3.8,13.1c1.8,2.7,6.2,2.4,13.5-1c9.3,3.4,18.5,3.9,28.4,3.9c9.1,0,18.8-0.4,28.4-3.9
			c7.2,3.4,11.7,3.7,13.5,1c2.1-3.4-0.9-8.8-3.8-13.1C203.2,204,203.3,180.4,197.6,156.9L197.6,156.9z M198.8,240.2
			c-0.4,0.8-3.6,0.8-10.2-2.4c-0.3-0.2-0.8-0.2-1.2-0.1c-5.5,2.1-12.7,3.9-27.9,3.9c-9,0-18.6-0.4-27.9-3.9
			c-0.3-0.1-0.8-0.1-1.2,0.1c-6.6,3.2-9.7,3.2-10.2,2.4c-0.5-0.9-0.7-3.3,4.2-10.3c0.2-0.3,0.3-0.8,0.2-1.2
			c-5.8-24.7-5.8-48.3-0.1-71.7c0.1-0.4,0-0.9-0.2-1.2c-4.8-6.9-4.6-9.4-4.1-10.2c0.4-0.8,3.6-0.8,10.2,2.4c0.3,0.2,0.8,0.2,1.2,0.1
			c5.5-2.1,12.7-3.9,27.9-3.9c9,0,18.6,0.4,27.9,3.9c0.4,0.1,0.9,0.1,1.2-0.1c6.6-3.2,9.7-3.2,10.2-2.4c0.5,0.9,0.8,3.3-4.1,10.2
			c-0.2,0.3-0.3,0.8-0.2,1.2c5.7,23.4,5.7,46.9-0.1,71.7c-0.1,0.4,0,0.9,0.2,1.2C199.4,236.9,199.3,239.3,198.8,240.2L198.8,240.2z"
			/>
		<path class="st0" d="M159.5,160.4c-7.1,0-13.8,2.2-19.5,6.5c-0.7,0.5-0.8,1.4-0.3,2.1c0.5,0.7,1.4,0.8,2.1,0.3
			c5.1-3.8,11.3-5.9,17.6-5.9c10.8,0,20.4,5.9,25.5,14.7H134c0.9-1.4,1.9-2.8,3-4.2c0.5-0.7,0.4-1.6-0.2-2.2
			c-0.7-0.5-1.6-0.4-2.2,0.2c-4.9,5.8-7.7,13.2-7.7,20.9c0,18,14.6,32.5,32.5,32.5c7.7,0,15-2.7,20.9-7.6c0.7-0.5,0.8-1.5,0.2-2.2
			c-0.5-0.7-1.5-0.8-2.2-0.2c-5.3,4.5-12,6.9-18.9,6.9c-10.8,0-20.4-5.9-25.5-14.7h50.9c-0.5,1-1.2,1.9-1.9,2.7
			c-0.5,0.7-0.3,1.6,0.3,2.1c0.7,0.5,1.6,0.3,2.1-0.3c4.3-5.7,6.5-12.4,6.5-19.5C192,175,177.4,160.4,159.5,160.4L159.5,160.4z
			 M186.5,204.7h-54.1c-1.5-3.6-2.5-7.6-2.5-11.8c0-4.1,0.9-8.1,2.5-11.8h54c1.5,3.6,2.5,7.6,2.5,11.8
			C188.9,197,188.2,201,186.5,204.7z"/>
	</g>
</g>
</svg>
