<?xml version="1.0" encoding="utf-8"?>
<!-- Generator: Adobe Illustrator 24.1.0, SVG Export Plug-In . SVG Version: 6.00 Build 0)  -->
<svg version="1.1" id="Layer_1" xmlns="http://www.w3.org/2000/svg" xmlns:xlink="http://www.w3.org/1999/xlink" x="0px" y="0px"
	 viewBox="0 0 512 512" style="enable-background:new 0 0 512 512;" xml:space="preserve">
<style type="text/css">
	.st0{fill:#DAA520;}
</style>
<path class="st0" d="M90.7,180.7c-5.5,0-10,4.5-10,10s4.5,10,10,10s10-4.5,10-10S96.3,180.7,90.7,180.7z"/>
<path class="st0" d="M370.9,300.2c-1.9-1.9-4.4-2.9-7.1-2.9c-0.1,0-3.9-0.2-7.1,2.9l-7.1,7.1l-23-23c50.7-71.1,43-169.1-19.4-231.6
	c-70.3-70.3-184.2-70.3-254.5,0s-70.3,184.2,0,254.5c62.3,62.3,160.3,70.3,231.6,19.4l23,23l-7.1,7.1c-3.9,3.9-3.9,10.2,0,14.1
	l126.4,126.4c19.5,19.5,51.2,19.6,70.7,0c19.5-19.5,19.6-51.2,0-70.7L370.9,300.2z M321.4,335.6L300,314.2c2.5-2.2,4.9-4.5,7.3-6.9
	s4.6-4.8,6.9-7.3l21.4,21.4L321.4,335.6z M66.9,293.1c-62.5-62.5-62.5-163.7,0-226.2s163.7-62.5,226.2,0
	c62.4,62.4,62.7,163.6,0,226.2C229.7,356.6,128.6,354.8,66.9,293.1z M363.9,321.4l28.3,28.3l-42.4,42.4l-28.3-28.3L363.9,321.4z
	 M483.2,483.2c-11.7,11.7-30.7,11.7-42.4,0l-76.9-76.9l42.4-42.4l76.9,76.9C494.9,452.5,494.9,471.5,483.2,483.2z"/>
<path class="st0" d="M279,81c-54.7-54.7-143.3-54.7-198,0c-54.6,54.6-54.6,143.4,0,198c54.7,54.7,143.3,54.7,198,0
	C333.6,224.4,333.6,135.6,279,81z M264.9,264.9c-46.9,46.9-122.8,46.9-169.7,0c-46.8-46.8-46.8-122.9,0-169.7
	c46.9-46.9,122.8-46.9,169.7,0C311.7,142,311.6,218.1,264.9,264.9z"/>
<path class="st0" d="M180,80c-26.7,0-51.8,10.4-70.7,29.3c-10.9,10.9-19,23.9-23.9,38.4c-1.8,5.2,1,10.9,6.3,12.7
	c5.2,1.8,10.9-1,12.7-6.3c3.9-11.6,10.4-21.9,19.1-30.7c15.1-15.1,35.2-23.4,56.6-23.4c5.5,0,10-4.5,10-10S185.5,80,180,80z"/>
</svg>
